<svg width="86" height="92" viewBox="0 0 86 92" fill="none" xmlns="http://www.w3.org/2000/svg">
<path d="M84.46 27.628L43.396 0.252C42.892 -0.084 42.236 -0.084 41.732 0.252L0.668 27.628C0.251 27.906 0 28.375 0 28.876C0 29.377 0.25 29.846 0.668 30.124L6.905 34.282V56.195C6.905 56.706 7.165 57.182 7.595 57.458L41.994 79.511C42.241 79.669 42.522 79.748 42.804 79.748C43.099 79.748 43.395 79.661 43.649 79.487L61.596 67.243V75.781L54.91 89.153C54.678 89.618 54.703 90.171 54.975 90.613C55.248 91.054 55.732 91.324 56.251 91.324H69.94C70.46 91.324 70.943 91.054 71.216 90.613C71.488 90.171 71.514 89.618 71.281 89.153L64.595 75.781V65.196L75.972 57.434C76.381 57.155 76.626 56.691 76.626 56.195V35.346L84.459 30.124C84.876 29.846 85.127 29.377 85.127 28.876C85.127 28.375 84.877 27.906 84.46 27.628ZM58.679 88.324L63.096 79.49L67.513 88.324H58.679ZM42.778 76.45L9.905 55.375V36.282L41.732 57.501C41.984 57.669 42.274 57.753 42.564 57.753C42.854 57.753 43.144 57.669 43.396 57.501L61.596 45.367V63.611L42.778 76.45ZM73.627 55.403L64.596 61.565V43.367L73.627 37.346V55.403ZM74.606 33.088C74.385 33.17 74.19 33.301 74.032 33.471L63.096 40.762L43.396 27.628C42.705 27.168 41.775 27.355 41.316 28.044C40.857 28.733 41.043 29.665 41.732 30.124L60.392 42.564L42.564 54.45L4.204 28.876L42.564 3.303L80.924 28.876L74.606 33.088Z" fill="#382459"/>
</svg>
