<svg width="116" height="17" viewBox="0 0 116 17" fill="none" xmlns="http://www.w3.org/2000/svg">
<path d="M4.95408 6.18553L4.57686 5.38081H1.96151L1.43341 6.5376C1.25738 6.93996 1.60945 7.16629 1.86092 7.24173V7.36747H0V7.24173C0.201181 7.16629 0.5281 7.0154 0.804723 6.38671L2.91712 1.80985C2.89197 1.63381 2.53991 1.50808 2.43932 1.50808V1.40749H3.77214L6.06057 6.46215C6.31205 7.0154 6.66411 7.16629 6.86529 7.24173V7.36747H4.62716V7.24173C4.82834 7.16629 5.2307 6.93996 5.07981 6.5376C5.05467 6.41186 5.00437 6.31127 4.95408 6.18553ZM2.21299 4.82756H4.32539L3.26919 2.43854L2.21299 4.82756ZM7.64487 2.16192H7.69516C7.74546 2.28765 7.8712 2.28765 7.97179 2.28765H11.6182V2.76546L8.37415 6.91481H10.9141C11.2158 6.91481 11.4925 6.66333 11.6685 6.21068H11.7439L11.5427 7.36747H7.31795V6.93996L10.562 2.76546H8.12267C7.92149 2.76546 7.69516 3.09238 7.61972 3.39415H7.54428L7.64487 2.16192ZM18.0811 3.01693C18.0811 2.61457 17.9554 2.48883 17.7039 2.38824V2.28765H20.4198C21.5012 2.28765 22.0544 2.8912 22.0544 3.67077C22.0544 4.45035 21.5012 5.05389 20.4198 5.05389L21.8281 6.73878C22.1299 7.0657 22.3311 7.21658 22.482 7.26688V7.36747H21.3L19.1122 4.72697V4.60123H20.2941C20.8725 4.60123 21.124 4.12343 21.124 3.67077C21.124 3.19297 20.8474 2.74031 20.2941 2.74031H19.1122C18.9613 2.74031 18.8607 2.74031 18.8607 2.96664V6.63819C18.8607 7.0154 18.9864 7.14114 19.2379 7.24173V7.34232H17.6788V7.24173C17.9302 7.14114 18.056 7.0154 18.056 6.63819V3.01693H18.0811ZM23.2615 7.34232V7.24173C23.513 7.14114 23.6387 7.0154 23.6387 6.63819V2.99179C23.6387 2.58943 23.513 2.46369 23.2615 2.3631V2.26251H26.1535C26.8325 2.26251 27.7127 2.46369 27.7127 3.51988C27.7127 3.97254 27.5115 4.29946 27.26 4.55094C27.6875 4.72697 28.0899 5.17963 28.0899 5.85861C28.0899 6.96511 27.084 7.34232 26.3295 7.34232H23.2615ZM24.4435 2.74031V4.4252H26.0781C26.4301 4.4252 26.9079 4.29946 26.9079 3.57018C26.9079 2.8409 26.4301 2.74031 26.0529 2.74031H24.4435ZM24.4435 6.76393C24.4435 6.83937 24.4938 6.88966 24.5441 6.88966H26.2792C26.8828 6.88966 27.1594 6.38671 27.1594 5.85861C27.1594 5.35566 26.8828 4.85271 26.3798 4.85271H24.4435V6.76393ZM32.5913 6.36156L32.2895 5.65743H30.0765L29.6239 6.63819C29.473 6.99025 29.7748 7.16629 29.9759 7.24173V7.34232H28.3916V7.24173C28.5677 7.19143 28.8443 7.0657 29.0958 6.51245L30.8812 2.61457C30.8561 2.46369 30.5543 2.3631 30.4789 2.3631V2.26251H31.6105L33.572 6.56274C33.7984 7.04055 34.075 7.16629 34.251 7.24173V7.34232H32.365V7.24173C32.541 7.16629 32.8679 6.99025 32.7422 6.63819C32.6919 6.56275 32.6416 6.46215 32.5913 6.36156ZM30.2777 5.20477H32.0883L31.2082 3.16782L30.2777 5.20477ZM36.6903 5.05389V6.76393C36.7155 7.04055 36.8412 7.16629 37.0676 7.24173V7.34232H35.4833V7.24173C35.7096 7.16629 35.8605 7.0657 35.8856 6.76393V5.25507L34.1756 2.86605C34.0247 2.66487 33.8738 2.43854 33.5972 2.3631V2.26251H35.2569V2.3631C35.106 2.41339 34.9049 2.51398 35.0809 2.76546L36.3886 4.60123L37.7968 2.76546C37.9729 2.53913 37.7968 2.41339 37.5957 2.3631V2.26251H38.9788V2.3631C38.8027 2.38825 38.677 2.48883 38.5513 2.63972L36.6903 5.05389ZM41.8205 7.0154C42.4491 7.0154 43.2036 6.73878 43.5556 5.85861H43.6311L43.5305 6.88966C42.9521 7.24173 42.3737 7.44291 41.6947 7.44291C39.8086 7.44291 38.8782 6.16038 38.8782 4.77726C38.8782 3.44444 39.8086 2.11162 41.6947 2.11162C42.2983 2.11162 42.9018 2.26251 43.4048 2.48884C43.4299 2.48884 43.455 2.46369 43.4802 2.43854H43.5305L43.4299 3.57018H43.3545C43.1533 2.89119 42.4743 2.53913 41.7953 2.53913C40.7894 2.53913 39.7584 3.26841 39.7584 4.72697C39.7835 6.31127 40.8145 7.0154 41.8205 7.0154ZM48.1828 6.36156L47.881 5.65743H45.668L45.2154 6.63819C45.0645 6.99025 45.3663 7.16629 45.5674 7.24173V7.34232H43.9831V7.24173C44.1592 7.19143 44.4358 7.0657 44.6873 6.51245L46.4728 2.61457C46.4476 2.46369 46.1458 2.3631 46.0704 2.3631V2.26251H47.2272L49.1887 6.56274C49.415 7.04055 49.6917 7.16629 49.8677 7.24173V7.34232H47.9565V7.24173C48.1325 7.16629 48.4594 6.99025 48.3337 6.63819C48.2582 6.56275 48.2079 6.46215 48.1828 6.36156ZM45.8441 5.20477H47.6547L46.7745 3.16782L45.8441 5.20477ZM55.2493 7.34232H54.6709L51.1502 3.26841V6.68848C51.1502 7.0154 51.3011 7.16629 51.5274 7.24173V7.34232H50.2197V7.24173C50.4712 7.16629 50.597 7.0154 50.597 6.68848V2.8912C50.5718 2.58942 50.4461 2.46369 50.2197 2.3631V2.26251H51.4017L54.6709 6.03464V2.91634C54.6709 2.56428 54.52 2.46369 54.2937 2.3631V2.26251H55.5762V2.3631C55.3247 2.46369 55.199 2.58943 55.199 2.91634V7.34232H55.2493ZM59.0214 2.23736C59.0214 1.75956 58.8705 1.60867 58.5687 1.50808V1.40749H61.7625C63.045 1.40749 63.6737 2.11162 63.6737 3.01693C63.6737 3.92225 63.0199 4.62638 61.7373 4.62638L63.3971 6.61304C63.7492 7.0154 64.0006 7.16629 64.1767 7.24173V7.36747H62.7935L60.2285 4.27431V4.14857H61.6368C62.3157 4.14857 62.6175 3.59533 62.6175 3.04208C62.6175 2.48884 62.2906 1.96073 61.6368 1.96073H60.2536C60.0776 1.96073 59.977 1.96074 59.977 2.23736V6.56274C59.977 7.0154 60.1279 7.16629 60.4297 7.26688V7.39262H58.5939V7.26688C58.8957 7.16629 59.0466 7.0154 59.0466 6.56274V2.23736H59.0214ZM66.2388 2.74031V4.52579H67.8231C68.0243 4.52579 68.0997 4.29946 68.15 3.99769H68.2254L68.1248 5.45625H68.0745C68.0494 5.22992 67.9991 4.97845 67.8482 4.97845H66.2639V6.76393C66.2639 6.86452 66.3142 6.91481 66.3645 6.91481H68.3512C68.7284 6.91481 68.9547 6.51245 69.0302 6.21068H69.1056L68.8793 7.36747H65.0568V7.26688C65.3083 7.16629 65.4341 7.04055 65.4341 6.66333V3.01693C65.4341 2.61457 65.3083 2.48883 65.0568 2.38824V2.28765H68.7787C68.829 2.28765 68.8793 2.26251 68.9296 2.23736H68.9799L68.8793 3.369H68.829C68.8038 3.16782 68.7535 2.74031 68.5523 2.74031H66.2388ZM69.8097 5.85861H69.8852C70.1115 6.81422 71.0671 7.0154 71.7209 7.0154C72.3999 7.0154 73.1795 6.71363 73.1795 6.03464C73.1795 5.45625 72.5508 5.25507 71.8718 5.07903C70.9665 4.85271 69.9606 4.57608 69.9606 3.57018C69.9606 2.58942 70.9917 2.13677 72.0227 2.13677C72.5508 2.13677 73.0538 2.23736 73.3807 2.46369C73.4058 2.43854 73.4561 2.43854 73.5567 2.41339H73.6322V3.51988H73.5567C73.4561 2.69001 72.4502 2.56428 71.9976 2.56428C71.3437 2.56428 70.7402 2.81575 70.7402 3.39415C70.7402 3.79651 71.5701 4.02284 71.9473 4.12343C72.8526 4.34976 73.9591 4.70182 73.9591 5.90891C73.9591 7.09084 72.752 7.4932 71.6204 7.46806C70.8408 7.44291 70.1618 7.19143 69.8097 6.86451V5.85861ZM75.1913 3.01693C75.1913 2.61457 75.0656 2.48883 74.8141 2.38824V2.28765H77.53C78.6365 2.28765 79.1646 2.8912 79.1646 3.67077C79.1646 4.4252 78.6114 5.05389 77.53 5.05389H75.996V6.66333C75.996 7.04055 76.1218 7.16629 76.3733 7.26688V7.36747H74.8141V7.26688C75.0656 7.16629 75.1913 7.04055 75.1913 6.66333V3.01693ZM76.2224 2.71516C76.0715 2.71516 75.9709 2.74031 75.9709 2.96664V4.60123H77.3792C77.9576 4.60123 78.209 4.12343 78.209 3.67077C78.209 3.19297 77.9576 2.74031 77.3792 2.74031H76.2224V2.71516ZM84.3702 4.903C84.3702 6.63819 83.314 7.4932 82.2578 7.4932C81.1764 7.4932 80.0951 6.61304 80.0951 4.87786V3.01693C80.0951 2.61457 79.9694 2.48883 79.7179 2.38824V2.28765H81.3273V2.38824C81.101 2.48883 80.9501 2.61457 80.9501 2.94149V4.77726C80.9501 6.26097 81.6794 7.0154 82.4338 7.0154C83.1631 7.0154 83.8672 6.31127 83.8672 4.92815V3.01693C83.8672 2.61457 83.7415 2.48883 83.49 2.38824V2.28765H84.7725V2.38824C84.5211 2.48883 84.3953 2.61457 84.3953 3.01693V4.903H84.3702ZM85.527 7.34232V7.24173C85.7785 7.14114 85.9042 7.0154 85.9042 6.63819V2.99179C85.9042 2.58943 85.7785 2.46369 85.527 2.3631V2.26251H88.4189C89.0979 2.26251 89.9781 2.46369 89.9781 3.51988C89.9781 3.97254 89.7769 4.29946 89.5003 4.55094C89.9278 4.72697 90.3302 5.17963 90.3302 5.85861C90.3302 6.96511 89.3243 7.34232 88.5698 7.34232H85.527ZM86.7341 2.74031V4.4252H88.3435C88.6956 4.4252 89.1734 4.29946 89.1734 3.57018C89.1734 2.8409 88.6956 2.74031 88.3184 2.74031H86.7341ZM86.7341 6.76393C86.7341 6.83937 86.7843 6.88966 86.8346 6.88966H88.5698C89.1734 6.88966 89.45 6.38671 89.45 5.85861C89.45 5.35566 89.1985 4.85271 88.6453 4.85271H86.7341V6.76393ZM94.9322 7.34232H91.2103V7.24173C91.4367 7.16629 91.5875 7.04055 91.5875 6.68848V2.99179C91.5875 2.58943 91.4618 2.46369 91.2103 2.3631V2.26251H92.7695V2.3631C92.518 2.46369 92.3923 2.58943 92.3923 2.99179V6.66333C92.3923 6.83937 92.4677 6.88966 92.5683 6.88966H94.3286C94.6304 6.88966 94.9322 6.61304 95.0831 6.18553H95.1585L94.9322 7.34232ZM97.3463 2.28765V2.38824C97.0949 2.48883 96.9691 2.61457 96.9691 3.01693V6.73878C96.9691 7.09084 97.12 7.19144 97.3463 7.26688V7.36747H95.7872V7.26688C96.0135 7.19144 96.1644 7.09084 96.1644 6.73878V3.01693C96.1644 2.61457 96.0387 2.48883 95.7872 2.38824V2.28765H97.3463ZM96.4662 0.97998C96.6674 0.97998 96.8685 1.13086 96.8685 1.43263C96.8685 1.73441 96.6674 1.88529 96.4913 1.88529C96.2901 1.88529 96.1141 1.70926 96.1141 1.43263C96.089 1.13086 96.265 0.97998 96.4662 0.97998ZM99.8863 2.28765V2.38824C99.6348 2.48883 99.4839 2.61457 99.4839 3.01693V5.05389L101.496 2.81575C101.521 2.7906 101.521 2.79061 101.521 2.79061C101.697 2.61457 101.596 2.41339 101.345 2.38824V2.28765H102.703V2.38824C102.426 2.51398 102.175 2.76546 101.948 2.99179L100.565 4.50064L102.326 6.71363C102.627 7.11599 102.854 7.21658 102.979 7.26688V7.36747H101.747L99.9868 5.12933L99.4587 5.73287V6.71363C99.4587 7.06569 99.6096 7.19144 99.8611 7.26688V7.36747H98.3019V7.26688C98.5283 7.19144 98.6792 7.06569 98.6792 6.71363V3.01693C98.6792 2.61457 98.5534 2.48883 98.3019 2.38824V2.28765H99.8863ZM107.154 6.36156L106.852 5.65743H104.614L104.161 6.63819C104.01 6.99025 104.312 7.16629 104.513 7.24173V7.34232H102.929V7.24173C103.105 7.19143 103.382 7.0657 103.633 6.51245L105.419 2.61457C105.394 2.46369 105.092 2.3631 105.016 2.3631V2.26251H106.173L108.135 6.56274C108.361 7.04055 108.663 7.16629 108.814 7.24173V7.34232H106.928V7.24173C107.104 7.16629 107.431 6.99025 107.305 6.63819C107.229 6.56275 107.204 6.46215 107.154 6.36156ZM104.815 5.20477H106.626L105.746 3.16782L104.815 5.20477ZM109.09 5.85861H109.166C109.392 6.81422 110.348 7.0154 111.001 7.0154C111.68 7.0154 112.46 6.71363 112.46 6.03464C112.46 5.45625 111.857 5.25507 111.152 5.07903C110.247 4.85271 109.216 4.57608 109.216 3.57018C109.216 2.58942 110.247 2.13677 111.278 2.13677C111.806 2.13677 112.309 2.23736 112.636 2.46369C112.661 2.43854 112.712 2.43854 112.812 2.41339H112.888V3.51988H112.812C112.712 2.69001 111.706 2.56428 111.253 2.56428C110.599 2.56428 109.996 2.81575 109.996 3.39415C109.996 3.79651 110.825 4.02284 111.203 4.12343C112.133 4.34976 113.214 4.70182 113.214 5.90891C113.214 7.09084 112.007 7.4932 110.876 7.46806C110.096 7.44291 109.417 7.19143 109.065 6.86451L109.09 5.85861ZM115.654 2.28765V2.38824C115.402 2.48883 115.277 2.61457 115.277 3.01693V6.73878C115.277 7.09084 115.427 7.19144 115.654 7.26688V7.36747H114.095V7.26688C114.321 7.19144 114.472 7.09084 114.472 6.73878V3.01693C114.472 2.61457 114.346 2.48883 114.095 2.38824V2.28765H115.654ZM14.3844 2.16192C13.806 2.16192 13.2025 2.33795 12.7247 2.56428C12.6995 2.53913 12.6744 2.53913 12.6241 2.51398H12.5738L12.5989 3.64562H12.6744C12.9007 2.81575 13.7054 2.61457 14.2838 2.61457C15.2897 2.61457 16.3208 3.34385 16.3208 4.80241C16.3208 4.82756 16.3208 4.87785 16.3208 4.903H13.0265H12.1966C12.1966 4.903 12.1966 5.00359 12.1966 5.17963V5.33051H12.2217C12.272 5.90891 12.5487 6.91481 13.7054 7.34232C13.9569 7.41776 14.2084 7.44291 14.4599 7.44291C15.9184 7.46806 17.2261 6.46215 17.2261 4.80241C17.2261 3.46959 16.2705 2.16192 14.3844 2.16192ZM14.4599 6.99025C14.2587 6.99025 14.0324 6.96511 13.8312 6.88966C13.7557 6.86452 12.9007 6.5376 12.8756 5.30537H13.7054H16.2453C16.0945 6.4873 15.2897 6.99025 14.4599 6.99025ZM24.5692 16.7727V16.8733H22.7334V16.7727C23.01 16.6721 23.1861 16.5212 23.1861 16.1188V11.4917H21.7778C21.2497 11.4917 21.0485 11.8689 20.9228 12.2461H20.8474L20.9731 10.9133H26.3547L26.4804 12.2461H26.405C26.2792 11.8689 26.0781 11.4917 25.55 11.4917H24.1417V16.1188C24.1165 16.5212 24.2926 16.6721 24.5692 16.7727ZM37.646 11.8186V11.9192C37.3945 12.0198 37.2687 12.1455 37.2687 12.5479V16.2446C37.2687 16.5715 37.4196 16.7224 37.646 16.7978V16.8984H36.0868V16.7978C36.3131 16.7224 36.464 16.5715 36.464 16.2446V14.5345H33.4463V16.2446C33.4463 16.5966 33.5972 16.7224 33.8235 16.7978V16.8984H32.2644V16.7978C32.4907 16.7224 32.6416 16.5966 32.6416 16.2446V12.5479C32.6416 12.1455 32.5158 12.0198 32.2644 11.9192V11.8186H33.8235V11.9192C33.572 12.0198 33.4463 12.1455 33.4463 12.5479V14.0819H36.464V12.5479C36.464 12.1455 36.3383 12.0198 36.0868 11.9192V11.8186H37.646ZM38.4758 15.3895H38.5513C38.7776 16.3452 39.7332 16.5463 40.387 16.5463C41.066 16.5463 41.8205 16.2446 41.8205 15.5656C41.8205 14.9872 41.2169 14.786 40.5128 14.61C39.6075 14.3836 38.6016 14.1322 38.6016 13.1011C38.6016 12.1204 39.6326 11.6677 40.6637 11.6677C41.1918 11.6677 41.6947 11.7683 42.0216 11.9946C42.0468 11.9695 42.0971 11.9695 42.1977 11.9443H42.2731V13.0508H42.1977C42.1222 12.221 41.0912 12.0952 40.6385 12.0952C39.9847 12.0952 39.3811 12.3467 39.3811 12.9251C39.3811 13.3526 40.211 13.5538 40.5882 13.6544C41.4935 13.9058 42.6 14.2328 42.6 15.4398C42.6 16.6218 41.3929 17.0241 40.2613 16.999C39.4817 16.9738 38.8027 16.7224 38.4507 16.3954L38.4758 15.3895ZM45.0393 11.8186V11.9192C44.7879 12.0198 44.6621 12.1455 44.6621 12.5479V16.2697C44.6621 16.6218 44.813 16.7224 45.0393 16.7978V16.8984H43.4802V16.7978C43.7065 16.7224 43.8574 16.6218 43.8574 16.2697V12.5479C43.8574 12.1455 43.7317 12.0198 43.4802 11.9192V11.8186H45.0393ZM44.1592 10.5109C44.3604 10.5109 44.5615 10.6869 44.5615 10.9636C44.5615 11.2653 44.3604 11.4162 44.1843 11.4162C43.9831 11.4162 43.8071 11.2653 43.8071 10.9636C43.782 10.6618 43.9831 10.5109 44.1592 10.5109ZM49.7419 16.8733H46.0201V16.7727C46.2464 16.6972 46.3973 16.5715 46.3973 16.2194V12.5227C46.3973 12.1204 46.2716 11.9946 46.0201 11.894V11.7934H47.5793V11.894C47.3278 11.9946 47.202 12.1204 47.202 12.5227V16.1943C47.202 16.3703 47.2775 16.4206 47.3781 16.4206H49.1384C49.4402 16.4206 49.7419 16.144 49.8928 15.7165H49.9683L49.7419 16.8733ZM58.4933 16.8733H57.8395L53.7153 12.0952V16.1188C53.7153 16.5212 53.8913 16.6721 54.1679 16.7727V16.8733H52.6339V16.7727C52.9105 16.6721 53.0866 16.5212 53.0866 16.1188V11.6677C53.0614 11.2905 52.9105 11.1648 52.6339 11.039V10.9384H54.017L57.8646 15.3644V11.6929C57.8646 11.2653 57.6886 11.1396 57.412 11.039V10.9384H58.9208V11.039C58.6442 11.1648 58.4682 11.2905 58.4682 11.6929V16.8733H58.4933ZM63.548 15.8673L63.2462 15.1632H61.0332L60.5806 16.1691C60.4297 16.5212 60.7314 16.6972 60.9326 16.7727V16.8733H59.3483V16.7727C59.5244 16.7224 59.801 16.5966 60.0525 16.0434L61.8379 12.1455C61.8128 11.9946 61.511 11.894 61.4356 11.894V11.7934H62.5672L64.5287 16.0937C64.7551 16.5715 65.0317 16.6972 65.2077 16.7727V16.8733H63.3216V16.7727C63.4977 16.6972 63.8246 16.5212 63.6989 16.1691C63.6486 16.0937 63.5983 15.9931 63.548 15.8673ZM61.2344 14.7357H63.045L62.1397 12.6988L61.2344 14.7357ZM65.9873 11.6929H66.0376C66.0879 11.8186 66.2136 11.8186 66.3142 11.8186H69.9606V12.2964L66.7166 16.4206H69.2565C69.5583 16.4206 69.8349 16.1691 70.0109 15.7165H70.0612L69.86 16.8481H65.6352V16.4206L68.8793 12.2712H66.4399C66.2388 12.2712 66.0124 12.5982 65.937 12.8999H65.8867L65.9873 11.6929ZM72.4251 11.8186V11.9192C72.1736 12.0198 72.0479 12.1455 72.0479 12.5479V16.2697C72.0479 16.6218 72.1987 16.7224 72.4251 16.7978V16.8984H70.8659V16.7978C71.0922 16.7224 71.2431 16.6218 71.2431 16.2697V12.5479C71.2431 12.1455 71.1174 12.0198 70.8659 11.9192V11.8186H72.4251ZM71.5701 10.5109C71.7712 10.5109 71.9724 10.6869 71.9724 10.9636C71.9724 11.2653 71.7712 11.4162 71.5952 11.4162C71.394 11.4162 71.218 11.2653 71.218 10.9636C71.1677 10.6618 71.3689 10.5109 71.5701 10.5109ZM73.8082 12.5227C73.8082 12.1204 73.6825 11.9946 73.431 11.894V11.7934H76.1469C77.2534 11.7934 77.7815 12.397 77.7815 13.1766C77.7815 13.9561 77.2283 14.5597 76.1469 14.5597L77.5552 16.2446C77.857 16.5966 78.0833 16.7224 78.209 16.7727V16.8733H77.0271L74.8392 14.2328V14.107H76.0463C76.5996 14.107 76.8762 13.6292 76.8762 13.1766C76.8762 12.6988 76.5996 12.2461 76.0463 12.2461H74.8644C74.7135 12.2461 74.6129 12.2461 74.6129 12.4724V16.1691C74.6129 16.5463 74.7387 16.6972 74.9901 16.7727V16.8733H73.431V16.7727C73.6825 16.6721 73.8082 16.5463 73.8082 16.1691V12.5227ZM82.7104 16.8733H78.9886V16.7727C79.2149 16.6972 79.3658 16.5715 79.3658 16.2194V12.5227C79.3658 12.1204 79.2401 11.9946 78.9886 11.894V11.7934H80.5477V11.894C80.2963 11.9946 80.1705 12.1204 80.1705 12.5227V16.1943C80.1705 16.3703 80.246 16.4206 80.3466 16.4206H82.1069C82.4087 16.4206 82.7104 16.144 82.8613 15.7165H82.9368L82.7104 16.8733ZM84.9989 11.8186V11.9192C84.7474 12.0198 84.6217 12.1455 84.6217 12.5479V16.2697C84.6217 16.6218 84.7725 16.7224 84.9989 16.7978V16.8984H83.4397V16.7978C83.666 16.7224 83.8169 16.6218 83.8169 16.2697V12.5479C83.8169 12.1455 83.6912 12.0198 83.4397 11.9192V11.8186H84.9989ZM84.1187 10.5109C84.3199 10.5109 84.5211 10.6869 84.5211 10.9636C84.5211 11.2653 84.3199 11.4162 84.1439 11.4162C83.9427 11.4162 83.7415 11.2653 83.7415 10.9636C83.7415 10.6618 83.9175 10.5109 84.1187 10.5109ZM88.5195 14.5848V16.2949C88.5447 16.5715 88.6704 16.6972 88.8968 16.7727V16.8733H87.3125V16.7727C87.5388 16.6972 87.6645 16.5966 87.7148 16.2949V14.786L86.0048 12.397C85.8539 12.1958 85.703 11.9695 85.4264 11.894V11.7934H87.0861V11.894C86.9352 11.9443 86.7341 12.0449 86.9101 12.2964L88.2178 14.1322L89.626 12.2964C89.8021 12.0701 89.626 11.9443 89.4249 11.894V11.7934H90.808V11.894C90.6068 11.9192 90.5062 12.0198 90.4056 12.1707L88.5195 14.5848ZM92.7946 11.8186V11.9192C92.5432 12.0198 92.4174 12.1455 92.4174 12.5479V16.2697C92.4174 16.6218 92.5683 16.7224 92.7946 16.7978V16.8984H91.2355V16.7978C91.4618 16.7224 91.6127 16.6218 91.6127 16.2697V12.5479C91.6127 12.1455 91.487 12.0198 91.2355 11.9192V11.8186H92.7946ZM91.9145 10.5109C92.1156 10.5109 92.3168 10.6869 92.3168 10.9636C92.3168 11.2653 92.1156 11.4162 91.9396 11.4162C91.7384 11.4162 91.5372 11.2653 91.5372 10.9636C91.5372 10.6618 91.7133 10.5109 91.9145 10.5109ZM28.8694 11.6426C28.291 11.6426 27.6875 11.8186 27.2097 12.0449C27.1846 12.0198 27.1594 12.0198 27.1343 11.9946H27.0588L27.084 13.1263H27.1594C27.3857 12.2964 28.1653 12.0952 28.7689 12.0952C29.7748 12.0952 30.8058 12.8245 30.8058 14.2831C30.8058 14.3082 30.8058 14.3585 30.8058 14.3836H27.5115H26.6816C26.6816 14.3836 26.6816 14.4842 26.6816 14.6351V14.786C26.757 15.3644 27.0337 16.3703 28.1905 16.7978C28.4419 16.8733 28.6934 16.8984 28.9449 16.8984C30.4034 16.9235 31.7111 15.9176 31.7111 14.2579C31.7111 12.9502 30.7555 11.6426 28.8694 11.6426ZM28.9449 16.4709C28.7437 16.4709 28.5174 16.4457 28.3162 16.3703C28.2407 16.3452 27.3857 16.0182 27.3606 14.786H28.1905H30.7304C30.5795 15.9679 29.7999 16.4709 28.9449 16.4709Z" fill="white"/>
</svg>
