<svg width="20" height="20" viewBox="0 0 20 20" fill="none" xmlns="http://www.w3.org/2000/svg">
<path d="M9.50836 2.40034C12.0439 2.40034 12.3609 2.40034 13.3117 2.50598C14.2625 2.50598 14.7908 2.71728 15.1077 2.82293C15.5303 3.03423 15.8473 3.24552 16.1642 3.56247C16.4812 3.87941 16.6925 4.19636 16.9038 4.61895C17.0094 4.9359 17.2207 5.46414 17.2207 6.41498C17.2207 7.36581 17.3263 7.68276 17.3263 10.2183C17.3263 12.7539 17.3263 13.0708 17.2207 14.0217C17.2207 14.9725 17.0094 15.5007 16.9038 15.8177C16.6925 16.2403 16.4812 16.5572 16.1642 16.8742C15.8473 17.1911 15.5303 17.4024 15.1077 17.6137C14.7908 17.7194 14.2625 17.9307 13.3117 17.9307C12.3609 17.9307 12.0439 18.0363 9.50836 18.0363C6.9728 18.0363 6.65585 18.0363 5.70502 17.9307C4.75418 17.9307 4.22594 17.7194 3.90899 17.6137C3.4864 17.4024 3.16945 17.1911 2.85251 16.8742C2.53556 16.5572 2.32427 16.2403 2.11297 15.8177C2.00732 15.5007 1.79602 14.9725 1.79602 14.0217C1.79602 13.0708 1.69038 12.7539 1.69038 10.2183C1.69038 7.68276 1.69038 7.36581 1.79602 6.41498C1.79602 5.46414 2.00732 4.9359 2.11297 4.61895C2.32427 4.19636 2.53556 3.87941 2.85251 3.56247C3.16945 3.13988 3.4864 2.92858 3.90899 2.82293C4.22594 2.71728 4.75418 2.50598 5.70502 2.50598C6.65585 2.40034 6.9728 2.40034 9.50836 2.40034ZM9.50836 0.709961C6.9728 0.709961 6.5502 0.709961 5.59937 0.815609C4.54288 0.815609 3.90899 1.02691 3.2751 1.2382C2.64121 1.4495 2.11297 1.76645 1.58473 2.29469C1.05648 2.82293 0.739539 3.35117 0.528242 3.98506C0.316945 4.61895 0.105648 5.25284 0.105648 6.30933C2.36143e-08 7.26016 0 7.68276 0 10.2183C0 12.7539 2.36143e-08 13.1765 0.105648 14.1273C0.105648 15.1838 0.316945 15.8177 0.528242 16.4516C0.739539 17.0855 1.05648 17.6137 1.58473 18.142C2.11297 18.6702 2.64121 18.9871 3.2751 19.1984C3.90899 19.4097 4.54288 19.621 5.59937 19.621C6.65585 19.621 6.9728 19.7267 9.50836 19.7267C12.0439 19.7267 12.4665 19.7267 13.4174 19.621C14.4738 19.621 15.1077 19.4097 15.7416 19.1984C16.3755 18.9871 16.9038 18.6702 17.432 18.142C17.9602 17.6137 18.2772 17.0855 18.4885 16.4516C18.6998 15.8177 18.9111 15.1838 18.9111 14.1273C18.9111 13.0708 19.0167 12.7539 19.0167 10.2183C19.0167 7.68276 19.0167 7.26016 18.9111 6.30933C18.9111 5.25284 18.6998 4.61895 18.4885 3.98506C18.2772 3.35117 17.9602 2.82293 17.432 2.29469C16.9038 1.76645 16.3755 1.4495 15.7416 1.2382C15.1077 1.02691 14.4738 0.815609 13.4174 0.815609C12.4665 0.709961 12.0439 0.709961 9.50836 0.709961Z" fill="#382459"/>
<path d="M9.50823 5.35986C6.76138 5.35986 4.64841 7.57848 4.64841 10.2197C4.64841 12.8609 6.86702 15.0795 9.50823 15.0795C12.1494 15.0795 14.3681 12.8609 14.3681 10.2197C14.3681 7.57848 12.2551 5.35986 9.50823 5.35986ZM9.50823 13.3891C7.71221 13.3891 6.33878 12.0157 6.33878 10.2197C6.33878 8.42367 7.71221 7.05024 9.50823 7.05024C11.3043 7.05024 12.6777 8.42367 12.6777 10.2197C12.6777 12.0157 11.3043 13.3891 9.50823 13.3891Z" fill="#382459"/>
<path d="M14.5785 6.30962C15.2204 6.30962 15.7407 5.78931 15.7407 5.14748C15.7407 4.50566 15.2204 3.98535 14.5785 3.98535C13.9367 3.98535 13.4164 4.50566 13.4164 5.14748C13.4164 5.78931 13.9367 6.30962 14.5785 6.30962Z" fill="#382459"/>
</svg>
