<svg width="96" height="128" viewBox="0 0 96 128" fill="none" xmlns="http://www.w3.org/2000/svg">
<path d="M36.6712 80.0256L12.4142 78.5108L18.4801 60.1259M18.4801 60.1259L12.4141 53.6823M18.4801 60.1259L25.1113 62.7796M18.4801 60.1259L10.1407 57.283" stroke="#FF1DC0" stroke-width="3.22266" stroke-linecap="round" stroke-linejoin="round"/>
<path d="M33.3023 63.105L21.5841 107.133C21.0773 109.038 22.8228 110.777 24.7259 110.264L68.7143 98.3983C70.6173 97.885 71.2517 95.5042 69.8554 94.1122L37.5853 61.9497C36.1897 60.5599 33.8097 61.2019 33.3023 63.105Z" fill="#FF1DC0"/>
<path d="M34.954 83.4117C34.3983 83.3006 34.173 82.6806 34.6649 82.3991C35.817 81.7397 37.7228 81.525 39.7651 81.9334C41.8074 82.3418 43.484 83.2729 44.294 84.3246C44.6397 84.7737 44.1934 85.2593 43.6376 85.1482L34.954 83.4117Z" fill="white"/>
<path d="M36.039 79.7045C36.9101 80.1079 37.8664 79.6726 38.1748 78.7324C38.4833 77.7922 38.0272 76.7031 37.156 76.2997C36.2849 75.8964 35.3286 76.3316 35.0201 77.2718C34.7117 78.212 35.1678 79.3012 36.039 79.7045Z" fill="white"/>
<path d="M42.385 80.1968C43.2561 80.6001 44.2124 80.1649 44.5209 79.2247C44.8294 78.2846 44.3733 77.1955 43.5022 76.7922C42.6311 76.3889 41.6748 76.8241 41.3663 77.7643C41.0578 78.7044 41.5139 79.7935 42.385 80.1968Z" fill="white"/>
<path d="M65.3978 96.8951L60.7442 122.621L75.7173 114.9L74.2016 122.621" stroke="#FF1DC0" stroke-width="3.22266" stroke-linecap="round" stroke-linejoin="round"/>
<path d="M35.9445 103.718L9.59949 103.718L22.4516 122.621L17.3217 122.621" stroke="#FF1DC0" stroke-width="3.22266" stroke-linecap="round" stroke-linejoin="round"/>
<path d="M52.9731 80.0256L81.0232 82.869L75.6897 65.9701M75.6897 65.9701L82.9195 61.6416M75.6897 65.9701L68.3262 67.1379M75.6897 65.9701L82.9195 65.9701" stroke="#FF1DC0" stroke-width="3.22266" stroke-linecap="round" stroke-linejoin="round"/>
<ellipse rx="43.8127" ry="27.2746" transform="matrix(-1 0 0 1 51.8073 41.8741)" fill="#30FFCD"/>
<rect width="87.6333" height="14.7428" transform="matrix(-1 0 0 1 95.6279 27.4626)" fill="#30FFCD"/>
<path d="M91.2724 15.4302C94.5176 19.6206 95.9871 24.2582 95.5413 28.9019C95.0954 33.5456 92.7491 38.0411 88.7252 41.9611C84.7014 45.8811 79.1339 49.0952 72.5519 51.298C65.9699 53.5007 58.5923 54.6188 51.1205 54.5459C43.6487 54.4731 36.3309 53.2117 29.863 50.8818C23.3951 48.5518 17.9919 45.2307 14.1673 41.2342C10.3426 37.2377 8.22351 32.6986 8.01148 28.0485C7.79945 23.3984 9.50153 18.7918 12.9559 14.6666L51.8066 27.2746L91.2724 15.4302Z" fill="#FF1DC0"/>
<path d="M91.2724 15.4302C87.743 10.8727 82.2468 7.01613 75.3983 4.29175C68.5498 1.56738 60.619 0.0825717 52.4927 0.0033442C44.3663 -0.0758833 36.3647 1.25359 29.3825 3.84313C22.4004 6.43266 16.7128 10.1802 12.9559 14.6667L51.8066 27.2746L91.2724 15.4302Z" fill="white"/>
</svg>
