<svg width="75" height="74" viewBox="0 0 75 74" fill="none" xmlns="http://www.w3.org/2000/svg">
<path d="M72.8453 2.12937C72.1052 1.39094 71.2149 0.820345 70.2349 0.456282C69.2549 0.0922202 68.208 -0.0567879 67.1653 0.0193671C54.9911 0.93077 43.5544 6.20353 34.9553 14.8694L33.8253 16.0194H19.0853C18.886 16.0195 18.6887 16.0594 18.505 16.1367C18.3213 16.2139 18.1548 16.327 18.0153 16.4694L2.3853 32.4694C2.17859 32.6802 2.03873 32.9474 1.98323 33.2375C1.92774 33.5275 1.95909 33.8275 2.07334 34.0998C2.1876 34.372 2.37968 34.6046 2.62552 34.7681C2.87135 34.9317 3.16 35.0191 3.45529 35.0194H17.8353L21.6853 38.8694C15.844 39.0837 10.3058 41.5237 6.20529 45.6894C-6.04471 58.0894 3.60529 72.2394 3.70529 72.3794C3.88806 72.6412 4.14962 72.8379 4.4519 72.9408C4.75419 73.0437 5.08142 73.0475 5.38599 72.9515C5.69055 72.8556 5.95655 72.6649 6.14528 72.4073C6.334 72.1498 6.4356 71.8387 6.43529 71.5194C6.43529 66.7094 10.9453 62.1494 15.7053 62.1494C17.9906 62.1626 20.1774 63.0818 21.7859 64.7053C23.3944 66.3288 24.2933 68.524 24.2853 70.8094C24.29 71.0805 24.368 71.3453 24.5112 71.5756C24.6544 71.8059 24.8573 71.9931 25.0984 72.1172C25.3395 72.2413 25.6097 72.2978 25.8804 72.2806C26.151 72.2633 26.4119 72.1731 26.6353 72.0194C29.518 69.7822 31.8548 66.9194 33.4693 63.647C35.0839 60.3746 35.9339 56.7783 35.9553 53.1294L39.9553 57.1294V71.5194C39.9556 71.8158 40.0437 72.1056 40.2085 72.352C40.3734 72.5985 40.6075 72.7905 40.8814 72.9039C41.1554 73.0174 41.4568 73.0471 41.7476 72.9893C42.0384 72.9315 42.3055 72.7889 42.5153 72.5794L58.5153 56.5794C58.7918 56.3032 58.9497 55.9301 58.9553 55.5394V41.1494L60.1053 40.0194C68.7711 31.4203 74.0439 19.9835 74.9553 7.80937C75.0314 6.76667 74.8824 5.7198 74.5184 4.73976C74.1543 3.75973 73.5837 2.86946 72.8453 2.12937ZM19.7153 19.0194H30.8253L17.8253 32.0194H7.01529L19.7153 19.0194ZM26.8953 67.8494C26.2503 65.3673 24.8017 63.1686 22.7756 61.5966C20.7494 60.0245 18.2598 59.1675 15.6953 59.1594C10.7753 59.1594 6.19529 62.6194 4.31529 67.1594C2.56529 62.7894 1.1553 55.0594 8.3153 47.8294C10.4398 45.6689 13.0298 44.0223 15.8877 43.0154C18.7456 42.0084 21.7957 41.6678 24.8053 42.0194L32.8053 50.0194C33.2101 53.2439 32.8896 56.5181 31.8671 59.6029C30.8446 62.6877 29.146 65.5051 26.8953 67.8494ZM55.9553 54.9194L42.9553 67.9194V57.1494L55.9553 44.1494V54.9194ZM57.9553 37.9194L56.3953 39.4794L56.3453 39.5294L41.4553 54.3994L20.5753 33.5194L35.4853 18.6094L35.5353 18.5594L37.0953 17.0194C45.1751 8.86104 55.9261 3.89029 67.3753 3.01937C67.9906 2.9642 68.6105 3.04479 69.1912 3.25545C69.7719 3.46611 70.2993 3.8017 70.7361 4.23852C71.173 4.67533 71.5086 5.20273 71.7192 5.78346C71.9299 6.36418 72.0105 6.98408 71.9553 7.59937C71.0844 19.0485 66.1136 29.7996 57.9553 37.8794V37.9194Z" fill="#382459"/>
<path d="M52.455 14.0193C50.2572 14.0205 48.1278 14.7836 46.4295 16.1788C44.7313 17.5739 43.5693 19.5147 43.1416 21.6705C42.7139 23.8263 43.0469 26.0637 44.0838 28.0015C45.1208 29.9393 46.7975 31.4577 48.8284 32.2978C50.8593 33.138 53.1187 33.248 55.2216 32.6091C57.3245 31.9702 59.1408 30.6219 60.3611 28.794C61.5814 26.9661 62.1301 24.7716 61.9139 22.5845C61.6976 20.3973 60.7297 18.3528 59.175 16.7993C58.2943 15.9147 57.2469 15.2134 56.0935 14.7363C54.94 14.2591 53.7033 14.0154 52.455 14.0193ZM57.055 28.1193C55.9926 29.1835 54.5941 29.8464 53.0978 29.9951C51.6014 30.1438 50.0998 29.7691 48.8487 28.9348C47.5977 28.1005 46.6746 26.8583 46.2367 25.4197C45.7988 23.9812 45.8733 22.4353 46.4473 21.0455C47.0214 19.6557 48.0595 18.5079 49.385 17.7977C50.7104 17.0874 52.241 16.8587 53.7162 17.1505C55.1913 17.4422 56.5197 18.2364 57.4749 19.3977C58.4302 20.559 58.9532 22.0156 58.955 23.5193C58.9582 24.3736 58.7919 25.2201 58.4658 26.0097C58.1396 26.7992 57.6601 27.5163 57.055 28.1193Z" fill="#382459"/>
</svg>
